HIERARCHY
ROOT hip
{
  OFFSET 0 0 0
  CHANNELS 6 Xposition Yposition Zposition Zrotation Yrotation Xrotation
  JOINT abdomen
  {
    OFFSET 0 20.6881 -0.73152
    CHANNELS 3 Zrotation Xrotation Yrotation
    JOINT chest
    {
      OFFSET 0 11.7043 -0.48768
      CHANNELS 3 Zrotation Xrotation Yrotation
      JOINT neck
      {
        OFFSET 0 22.1894 -2.19456
        CHANNELS 3 Zrotation Xrotation Yrotation
        JOINT head
        {
          OFFSET -0.24384 7.07133 1.2192
          CHANNELS 3 Zrotation Xrotation Yrotation
          JOINT leftEye
          {
            OFFSET 4.14528 8.04674 8.04672
            CHANNELS 3 Zrotation Xrotation Yrotation
            End Site
            {
              OFFSET 1 0 0
            }
          }
          JOINT rightEye
          {
            OFFSET -3.6576 8.04674 8.04672
            CHANNELS 3 Zrotation Xrotation Yrotation
            End Site
            {
              OFFSET 1 0 0
            }
          }
        }
      }
      JOINT rCollar
      {
        OFFSET -2.68224 19.2634 -4.8768
        CHANNELS 3 Zrotation Xrotation Yrotation
        JOINT rShldr
        {
          OFFSET -8.77824 -1.95073 1.46304
          CHANNELS 3 Zrotation Xrotation Yrotation
          JOINT rForeArm
          {
            OFFSET -28.1742 -1.7115 0.48768
            CHANNELS 3 Zrotation Xrotation Yrotation
            JOINT rHand
            {
              OFFSET -22.5879 0.773209 7.07136
              CHANNELS 3 Zrotation Xrotation Yrotation
              JOINT rThumb1
              {
                OFFSET -1.2192 -0.487915 3.41376
                CHANNELS 3 Zrotation Xrotation Yrotation
                JOINT rThumb2
                {
                  OFFSET -3.37035 -0.52449 3.41376
                  CHANNELS 3 Zrotation Xrotation Yrotation
                  End Site
                  {
                    OFFSET -1.78271 -1.18214 1.43049
                  }
                }
              }
              JOINT rIndex1
              {
                OFFSET -7.75947 0.938293 5.60832
                CHANNELS 3 Zrotation Xrotation Yrotation
                JOINT rIndex2
                {
                  OFFSET -2.54057 -0.884171 1.56538
                  CHANNELS 3 Zrotation Xrotation Yrotation
                  End Site
                  {
                    OFFSET -1.62519 -0.234802 1.16502
                  }
                }
              }
              JOINT rMid1
              {
                OFFSET -8.24714 1.18213 3.41376
                CHANNELS 3 Zrotation Xrotation Yrotation
                JOINT rMid2
                {
                  OFFSET -3.10165 -0.590103 1.0647
                  CHANNELS 3 Zrotation Xrotation Yrotation
                  End Site
                  {
                    OFFSET -2.48547 -0.328903 0.83742
                  }
                }
              }
              JOINT rRing1
              {
                OFFSET -8.82822 0.546677 1.51678
                CHANNELS 3 Zrotation Xrotation Yrotation
                JOINT rRing2
                {
                  OFFSET -2.60934 -0.819778 -0.0198488
                  CHANNELS 3 Zrotation Xrotation Yrotation
                  End Site
                  {
                    OFFSET -2.33842 -0.294052 0.168128
                  }
                }
              }
              JOINT rPinky1
              {
                OFFSET -8.27202 -0.0477905 -0.4584
                CHANNELS 3 Zrotation Xrotation Yrotation
                JOINT rPinky2
                {
                  OFFSET -1.82734 -0.647385 -0.700984
                  CHANNELS 3 Zrotation Xrotation Yrotation
                  End Site
                  {
                    OFFSET -1.69225 -0.51767 -0.607171
                  }
                }
              }
            }
          }
        }
      }
      JOINT lCollar
      {
        OFFSET 2.68224 19.2634 -4.8768
        CHANNELS 3 Zrotation Xrotation Yrotation
        JOINT lShldr
        {
          OFFSET 8.77824 -1.95073 1.46304
          CHANNELS 3 Zrotation Xrotation Yrotation
          JOINT lForeArm
          {
            OFFSET 28.1742 -1.7115 0.48768
            CHANNELS 3 Zrotation Xrotation Yrotation
            JOINT lHand
            {
              OFFSET 22.5879 0.773209 7.07136
              CHANNELS 3 Zrotation Xrotation Yrotation
              JOINT lThumb1
              {
                OFFSET 1.2192 -0.487915 3.41376
                CHANNELS 3 Zrotation Xrotation Yrotation
                JOINT lThumb2
                {
                  OFFSET 3.37035 -0.52449 3.41376
                  CHANNELS 3 Zrotation Xrotation Yrotation
                  End Site
                  {
                    OFFSET 1.78271 -1.18214 1.43049
                  }
                }
              }
              JOINT lIndex1
              {
                OFFSET 7.75947 0.938293 5.60832
                CHANNELS 3 Zrotation Xrotation Yrotation
                JOINT lIndex2
                {
                  OFFSET 2.54057 -0.884171 1.56538
                  CHANNELS 3 Zrotation Xrotation Yrotation
                  End Site
                  {
                    OFFSET 1.62519 -0.234802 1.16502
                  }
                }
              }
              JOINT lMid1
              {
                OFFSET 8.24714 1.18213 3.41376
                CHANNELS 3 Zrotation Xrotation Yrotation
                JOINT lMid2
                {
                  OFFSET 3.10165 -0.590103 1.0647
                  CHANNELS 3 Zrotation Xrotation Yrotation
                  End Site
                  {
                    OFFSET 2.48547 -0.328903 0.83742
                  }
                }
              }
              JOINT lRing1
              {
                OFFSET 8.82822 0.546677 1.51678
                CHANNELS 3 Zrotation Xrotation Yrotation
                JOINT lRing2
                {
                  OFFSET 2.60934 -0.819778 -0.0198488
                  CHANNELS 3 Zrotation Xrotation Yrotation
                  End Site
                  {
                    OFFSET 2.33842 -0.294052 0.168128
                  }
                }
              }
              JOINT lPinky1
              {
                OFFSET 8.27202 -0.0477905 -0.4584
                CHANNELS 3 Zrotation Xrotation Yrotation
                JOINT lPinky2
                {
                  OFFSET 1.82734 -0.647385 -0.700984
                  CHANNELS 3 Zrotation Xrotation Yrotation
                  End Site
                  {
                    OFFSET 1.69225 -0.51767 -0.607171
                  }
                }
              }
            }
          }
        }
      }
    }
  }
  JOINT rButtock
  {
    OFFSET -8.77824 4.35084 1.2192
    CHANNELS 3 Zrotation Xrotation Yrotation
    JOINT rThigh
    {
      OFFSET 0 -1.70687 -2.19456
      CHANNELS 3 Zrotation Xrotation Yrotation
      JOINT rShin
      {
        OFFSET 0 -36.8199 0.73152
        CHANNELS 3 Zrotation Xrotation Yrotation
        JOINT rFoot
        {
          OFFSET 0.73152 -45.1104 -5.12064
          CHANNELS 3 Zrotation Xrotation Yrotation
          End Site
          {
            OFFSET -1.1221 -3.69964 12.103
          }
        }
      }
    }
  }
  JOINT lButtock
  {
    OFFSET 8.77824 4.35084 1.2192
    CHANNELS 3 Zrotation Xrotation Yrotation
    JOINT lThigh
    {
      OFFSET 0 -1.70687 -2.19456
      CHANNELS 3 Zrotation Xrotation Yrotation
      JOINT lShin
      {
        OFFSET 0 -36.8199 0.73152
        CHANNELS 3 Zrotation Xrotation Yrotation
        JOINT lFoot
        {
          OFFSET -0.73152 -45.1104 -5.12064
          CHANNELS 3 Zrotation Xrotation Yrotation
          End Site
          {
            OFFSET 1.1221 -3.69964 12.103
          }
        }
      }
    }
  }
}
MOTION
Frames:	9
Frame Time:	0.00833333
-6.70128 84.9552 36.4557 -4.1729 1.9507 1.7594 2.5896 7.81668 4.48866 -1.72122 -6.94119 1.09714 -0.995008 2.71711 -2.17932 -3.29024 -14.6257 -4.51993 -0.0 0.0 0.0 -0.0 0.0 0.0 4.79552e-15 4.09308e-14 8.01067e-14 42.2613 46.5685 23.892 -22.9645 -50.4256 106.425 -2.26736 -38.5816 -6.44462 -1.18086e-10 -1.88656e-10 -1.11578e-10 -1.99663e-10 -3.18049e-10 -1.97014e-10 -1.18081e-10 -1.88654e-10 -1.11592e-10 7.73091 5.47488 0.417314 -1.18086e-10 -1.88632e-10 -1.11594e-10 2.90554 0.965183 0.102902 -1.18078e-10 -1.88654e-10 -1.11587e-10 10.2786 0.731801 0.0259123 -1.1809e-10 -1.88654e-10 -1.11582e-10 2.22167 -0.733487 -0.20892 4.52865e-15 4.09292e-14 7.98594e-14 -61.1669 61.1963 -15.8209 28.1574 -31.6543 -69.9011 0.0596155 -6.94558 0.981004 3.84416e-10 -4.62846e-09 -6.42288e-10 6.66937e-10 -7.99545e-09 -1.10831e-09 3.84411e-10 -4.62848e-09 -6.42279e-10 -7.73091 5.47488 -0.417314 3.8442e-10 -4.62846e-09 -6.42288e-10 -2.90554 0.965183 -0.102902 3.84417e-10 -4.62846e-09 -6.42286e-10 -10.2786 0.731801 -0.0259123 3.8442e-10 -4.62845e-09 -6.42294e-10 -2.22167 -0.733487 0.20892 -2.03217e-16 0.0 -3.88251e-19 -22.1335 -1.97794 0.000772275 0.0034445 -2.08038 0.0358384 -0.359572 4.03167 0.118411 2.03217e-16 0.0 3.88251e-19 7.23163 -0.508381 -7.5499 -0.0558451 5.49042 -0.265067 0.534209 -9.66901 18.2533
-6.71764 84.9418 36.3921 -4.1743 1.8727 1.7496 2.53929 7.75968 4.41606 -1.60967 -6.90264 1.08193 -1.08728 1.691 -2.0704 -3.1678 -9.9153 -4.09903 -0.0 0.0 0.0 -0.0 0.0 0.0 -2.72443e-14 5.04915e-14 1.06648e-13 45.756 48.3747 20.3353 -24.3511 -48.9318 102.154 -2.14385 -37.7942 -6.25721 -1.96673e-10 2.18409e-11 -2.2497e-10 -3.33937e-10 5.67411e-11 -3.94835e-10 -1.96668e-10 2.18433e-11 -2.2498e-10 7.73091 5.47488 0.417314 -1.96673e-10 2.18678e-11 -2.24986e-10 2.90554 0.965183 0.102902 -1.96664e-10 2.18428e-11 -2.24979e-10 10.2786 0.731801 0.0259123 -1.96676e-10 2.18429e-11 -2.24973e-10 2.22167 -0.733487 -0.20892 -2.75226e-14 5.0489e-14 1.06399e-13 -59.7179 60.9145 -17.7306 28.144 -31.5532 -69.735 0.0550287 -6.67916 0.943012 6.37946e-10 -6.37594e-09 -8.91363e-10 1.10643e-09 -1.1005e-08 -1.53681e-09 6.37943e-10 -6.37596e-09 -8.91354e-10 -7.73091 5.47488 -0.417314 6.37951e-10 -6.37594e-09 -8.9136e-10 -2.90554 0.965183 -0.102902 6.37949e-10 -6.37593e-09 -8.91361e-10 -10.2786 0.731801 -0.0259123 6.37951e-10 -6.37593e-09 -8.9137e-10 -2.22167 -0.733487 0.20892 -2.03217e-16 0.0 -3.88251e-19 -22.1331 -1.97824 0.000760618 0.00354183 -2.08039 0.0366987 -0.359555 4.0318 0.118411 2.03217e-16 0.0 3.88251e-19 7.23573 -0.463482 -7.57356 -0.0559972 5.48491 -0.265007 0.537246 -9.67264 18.2766
-6.74779 84.9338 36.3332 -4.2221 1.7226 1.7019 2.50074 7.74175 4.34019 -1.51024 -6.81863 1.06614 -1.12742 0.813392 -1.98074 -3.17374 -5.70036 -3.76151 -0.0 0.0 0.0 -0.0 0.0 0.0 -3.07627e-14 3.16786e-14 9.6027e-14 48.7497 49.3199 17.5787 -25.745 -47.0999 97.3494 -1.99987 -36.6073 -5.99726 -3.57853e-10 6.30696e-10 -4.88445e-10 -6.06435e-10 1.13881e-09 -8.53256e-10 -3.57847e-10 6.30697e-10 -4.88453e-10 7.73091 5.47488 0.417314 -3.57852e-10 6.30717e-10 -4.88459e-10 2.90554 0.965183 0.102902 -3.57844e-10 6.30695e-10 -4.88453e-10 10.2786 0.731801 0.0259123 -3.57857e-10 6.30695e-10 -4.88448e-10 2.22167 -0.733487 -0.20892 -3.10306e-14 3.16759e-14 9.57661e-14 -57.8533 60.5698 -20.0104 28.1253 -31.4237 -69.5323 0.049524 -6.35131 0.896308 5.1687e-10 -3.64706e-09 -4.31035e-10 8.95303e-10 -6.28302e-09 -7.41054e-10 5.16868e-10 -3.64708e-09 -4.31027e-10 -7.73091 5.47488 -0.417314 5.16876e-10 -3.64705e-09 -4.31032e-10 -2.90554 0.965183 -0.102902 5.16872e-10 -3.64705e-09 -4.31034e-10 -10.2786 0.731801 -0.0259123 5.16875e-10 -3.64705e-09 -4.31045e-10 -2.22167 -0.733487 0.20892 -2.03217e-16 0.0 -3.88251e-19 -22.1328 -1.97855 0.00074973 0.00363012 -2.0804 0.0374791 -0.359574 4.03193 0.118416 2.03217e-16 0.0 3.88251e-19 7.2161 -0.40693 -7.57214 -0.0565478 5.47893 -0.265592 0.538681 -9.6636 18.3188
-6.76474 84.9335 36.2782 -4.2419 1.565 1.5884 2.47216 7.75299 4.265 -1.41706 -6.70648 1.05094 -1.12592 0.0204194 -1.90302 -3.26352 -1.78694 -3.46927 -0.0 0.0 0.0 -0.0 0.0 0.0 -1.66545e-14 -5.09327e-15 6.38844e-14 51.2538 49.6051 15.5012 -26.901 -44.7378 92.4227 -1.83334 -34.9842 -5.66271 -5.72333e-10 1.51653e-09 -8.75895e-10 -9.67571e-10 2.71285e-09 -1.52675e-09 -5.72325e-10 1.51653e-09 -8.75901e-10 7.73091 5.47488 0.417314 -5.7233e-10 1.51654e-09 -8.75905e-10 2.90554 0.965183 0.102902 -5.72324e-10 1.51653e-09 -8.75902e-10 10.2786 0.731801 0.0259123 -5.72337e-10 1.51653e-09 -8.75897e-10 2.22167 -0.733487 -0.20892 -1.68947e-14 -5.09584e-15 6.36049e-14 -55.7069 60.1451 -22.5498 28.1021 -31.2727 -69.3031 0.0436692 -5.97609 0.842939 1.70077e-10 1.77925e-09 4.60422e-10 2.92227e-10 3.09819e-09 7.98739e-10 1.70076e-10 1.77923e-09 4.60429e-10 -7.73091 5.47488 -0.417314 1.70082e-10 1.77926e-09 4.60424e-10 -2.90554 0.965183 -0.102902 1.70077e-10 1.77926e-09 4.60421e-10 -10.2786 0.731801 -0.0259123 1.70081e-10 1.77926e-09 4.60407e-10 -2.22167 -0.733487 0.20892 -2.03217e-16 0.0 -3.88251e-19 -22.1325 -1.97884 0.000739267 0.00370676 -2.08041 0.0381565 -0.35961 4.03206 0.118424 2.03217e-16 0.0 3.88251e-19 7.17953 -0.34422 -7.55459 -0.0573342 5.47168 -0.266512 0.54034 -9.6484 18.3801
-6.74482 84.935 36.2023 -4.1555 1.4292 1.4959 2.4596 7.78281 4.19752 -1.32904 -6.58855 1.03815 -1.11564 -0.650722 -1.8388 -3.39682 1.7332 -3.22066 -0.0 0.0 0.0 -0.0 0.0 0.0 2.34817e-15 -4.41885e-14 2.64989e-14 53.1102 49.5605 14.2056 -27.6723 -42.1507 87.7479 -1.56566 -32.5754 -5.17268 -7.36206e-10 2.52352e-09 -1.25335e-09 -1.24201e-09 4.4917e-09 -2.18221e-09 -7.36198e-10 2.52352e-09 -1.25336e-09 7.73091 5.47488 0.417314 -7.36201e-10 2.52352e-09 -1.25336e-09 2.90554 0.965183 0.102902 -7.36197e-10 2.52351e-09 -1.25336e-09 10.2786 0.731801 0.0259123 -7.36211e-10 2.52351e-09 -1.25335e-09 2.22167 -0.733487 -0.20892 2.13902e-15 -4.41908e-14 2.62039e-14 -53.4415 59.6353 -25.2264 28.0725 -31.0771 -68.9919 0.0385804 -5.61466 0.791624 -2.20557e-10 7.42737e-09 1.38153e-09 -3.86814e-10 1.28612e-08 2.38945e-09 -2.20557e-10 7.42734e-09 1.38153e-09 -7.73091 5.47488 -0.417314 -2.20553e-10 7.42737e-09 1.38153e-09 -2.90554 0.965183 -0.102902 -2.2056e-10 7.42737e-09 1.38152e-09 -10.2786 0.731801 -0.0259123 -2.20554e-10 7.42737e-09 1.38151e-09 -2.22167 -0.733487 0.20892 -2.03217e-16 0.0 -3.88251e-19 -22.1318 -1.97912 0.000722618 0.00377001 -2.08042 0.0387156 -0.359592 4.03219 0.118424 2.03217e-16 0.0 3.88251e-19 7.14198 -0.276331 -7.52024 -0.0580518 5.45542 -0.266968 0.545855 -9.63242 18.4547
-6.70093 84.9394 36.1054 -4.0964 1.406 1.4468 2.46905 7.82062 4.14479 -1.24513 -6.48721 1.02961 -1.12953 -1.16283 -1.78967 -3.53274 4.76837 -3.01552 -0.0 0.0 0.0 -0.0 0.0 0.0 1.35128e-14 -6.99714e-14 1.49089e-16 54.2505 49.5098 13.7255 -28.123 -39.7079 83.3999 -1.15854 -29.0277 -4.47316 -7.45567e-10 3.49584e-09 -1.48685e-09 -1.25441e-09 6.1882e-09 -2.58655e-09 -7.45559e-10 3.49584e-09 -1.48686e-09 7.73091 5.47488 0.417314 -7.45562e-10 3.49583e-09 -1.48685e-09 2.90554 0.965183 0.102902 -7.45559e-10 3.49583e-09 -1.48685e-09 10.2786 0.731801 0.0259123 -7.45573e-10 3.49583e-09 -1.48685e-09 2.22167 -0.733487 -0.20892 1.33241e-14 -6.99736e-14 -1.49089e-16 -51.214 59.0435 -27.924 28.0328 -30.8112 -68.5451 0.0349459 -5.32818 0.751015 -4.73158e-10 1.08216e-08 1.9308e-09 -8.25832e-10 1.87284e-08 3.33798e-09 -4.73157e-10 1.08216e-08 1.9308e-09 -7.73091 5.47488 -0.417314 -4.73154e-10 1.08216e-08 1.9308e-09 -2.90554 0.965183 -0.102902 -4.73163e-10 1.08216e-08 1.9308e-09 -10.2786 0.731801 -0.0259123 -4.73156e-10 1.08216e-08 1.93078e-09 -2.22167 -0.733487 0.20892 -2.03217e-16 0.0 -3.88251e-19 -22.1303 -1.97939 0.000693173 0.00381812 -2.08043 0.0391409 -0.359448 4.03234 0.118405 2.03217e-16 0.0 3.88251e-19 7.11937 -0.204242 -7.46841 -0.0583954 5.42245 -0.266161 0.558887 -9.62101 18.5368
-6.63971 84.9516 36.0065 -4.1291 1.5389 1.3964 2.50807 7.87536 4.11286 -1.16237 -6.40236 1.02736 -1.17838 -1.47919 -1.75652 -3.6548 7.24828 -2.8471 -0.0 0.0 0.0 -0.0 0.0 0.0 1.14265e-14 -7.62113e-14 -1.15598e-14 54.4786 49.4539 14.3352 -28.4319 -37.3797 78.9676 -0.651656 -23.7117 -3.50564 -5.06285e-10 4.5636e-09 -1.51883e-09 -8.44536e-10 8.01477e-09 -2.6387e-09 -5.0628e-10 4.56358e-09 -1.51883e-09 7.73091 5.47488 0.417314 -5.06282e-10 4.56359e-09 -1.51883e-09 2.90554 0.965183 0.102902 -5.06279e-10 4.56359e-09 -1.51883e-09 10.2786 0.731801 0.0259123 -5.06289e-10 4.56359e-09 -1.51882e-09 2.22167 -0.733487 -0.20892 1.12411e-14 -7.62136e-14 -1.18436e-14 -49.0081 58.3416 -30.6525 27.9741 -30.4531 -67.9661 0.0329551 -5.15963 0.727145 -5.25915e-10 1.09118e-08 1.93308e-09 -9.1742e-10 1.88853e-08 3.34186e-09 -5.25913e-10 1.09118e-08 1.93308e-09 -7.73091 5.47488 -0.417314 -5.25911e-10 1.09118e-08 1.93308e-09 -2.90554 0.965183 -0.102902 -5.2592e-10 1.09118e-08 1.93308e-09 -10.2786 0.731801 -0.0259123 -5.25912e-10 1.09118e-08 1.93306e-09 -2.22167 -0.733487 0.20892 -2.03217e-16 0.0 -3.88251e-19 -22.1273 -1.97977 0.000637879 0.00386842 -2.08044 0.0395854 -0.359091 4.03259 0.118357 2.03217e-16 0.0 3.88251e-19 7.12004 -0.107559 -7.38777 -0.0579802 5.35945 -0.263313 0.585701 -9.61756 18.637
-6.7354 84.99 35.9347 -4.1622 0.9439 1.2017 2.57148 7.94876 4.09659 -1.08227 -6.3241 1.0299 -1.24518 -1.62853 -1.73816 -3.76894 9.236 -2.70913 -0.0 0.0 0.0 -0.0 0.0 0.0 3.55262e-15 -7.19343e-14 -1.70644e-14 53.8916 49.2483 15.9277 -28.5244 -34.8603 74.507 -0.245561 -16.9807 -2.416 -9.59167e-11 5.75267e-09 -1.42801e-09 -1.43738e-10 1.00283e-08 -2.47596e-09 -9.59157e-11 5.75265e-09 -1.42802e-09 7.73091 5.47488 0.417314 -9.59172e-11 5.75266e-09 -1.42801e-09 2.90554 0.965183 0.102902 -9.59133e-11 5.75266e-09 -1.42801e-09 10.2786 0.731801 0.0259123 -9.59191e-11 5.75266e-09 -1.428e-09 2.22167 -0.733487 -0.20892 3.3616e-15 -7.19369e-14 -1.73222e-14 -46.7998 57.5268 -33.4213 27.8935 -30.0127 -67.2863 0.0318339 -5.06751 0.714096 -4.80264e-10 9.1483e-09 1.62519e-09 -8.3782e-10 1.58378e-08 2.80996e-09 -4.80262e-10 9.1483e-09 1.62519e-09 -7.73091 5.47488 -0.417314 -4.80261e-10 9.14832e-09 1.62519e-09 -2.90554 0.965183 -0.102902 -4.80268e-10 9.14831e-09 1.62519e-09 -10.2786 0.731801 -0.0259123 -4.80261e-10 9.14831e-09 1.62517e-09 -2.22167 -0.733487 0.20892 -2.03217e-16 0.0 -3.88251e-19 -22.1233 -1.98022 0.000564024 0.00391589 -2.08044 0.0400051 -0.358582 4.0329 0.118288 2.03217e-16 0.0 3.88251e-19 7.13384 0.00739237 -7.28242 -0.0570603 5.27428 -0.259041 0.622613 -9.61851 18.7544
-6.84911 85.0256 35.7335 -4.1504 -0.0261 1.5264 2.64609 8.01942 4.08625 -1.01042 -6.26009 1.03376 -1.32093 -1.67184 -1.73304 -3.8693 10.8401 -2.60481 -0.0 0.0 0.0 -0.0 0.0 0.0 -3.52759e-15 -6.43899e-14 -1.81492e-14 52.8861 48.9907 17.9421 -28.3159 -32.257 70.4358 -0.0509751 -9.96403 -1.38852 3.3191e-10 6.75092e-09 -1.28487e-09 5.85975e-10 1.1708e-08 -2.22273e-09 3.31907e-10 6.75089e-09 -1.28488e-09 7.73091 5.47488 0.417314 3.31906e-10 6.75092e-09 -1.28487e-09 2.90554 0.965183 0.102902 3.31911e-10 6.75092e-09 -1.28487e-09 10.2786 0.731801 0.0259123 3.31909e-10 6.75092e-09 -1.28485e-09 2.22167 -0.733487 -0.20892 -3.72439e-15 -6.43926e-14 -1.83763e-14 -44.7088 56.6507 -36.138 27.7942 -29.5082 -66.4959 0.0307336 -4.98628 0.702581 -3.99201e-10 6.80632e-09 1.22362e-09 -6.96514e-10 1.17894e-08 2.11616e-09 -3.992e-10 6.80632e-09 1.22362e-09 -7.73091 5.47488 -0.417314 -3.99199e-10 6.80634e-09 1.22362e-09 -2.90554 0.965183 -0.102902 -3.99205e-10 6.80632e-09 1.22362e-09 -10.2786 0.731801 -0.0259123 -3.99199e-10 6.80632e-09 1.22361e-09 -2.22167 -0.733487 0.20892 -2.03217e-16 0.0 -3.88251e-19 -22.1194 -1.98051 0.000495512 0.00392534 -2.08044 0.0400886 -0.358069 4.03312 0.118216 2.03217e-16 0.0 3.88251e-19 7.14932 0.0995124 -7.17479 -0.0562937 5.19102 -0.254631 0.658362 -9.61887 18.8657
